<!DOCTYPE svg PUBLIC "-//W3C//DTD SVG 20010904//EN" "http://www.w3.org/TR/2001/REC-SVG-20010904/DTD/svg10.dtd">
<svg version="1.0" xmlns="http://www.w3.org/2000/svg" width="1600px" height="1598px" viewBox="0 0 16000 15980" preserveAspectRatio="xMidYMid meet">
 <g id="black-circle">
  <circle cx="8000" cy="7990" r="7600" fill="#000" stroke="none" />
 </g>
 <g id="purple-parts">
  <circle cx="8000" cy="7990" r="7630" stroke="#854ee1" stroke-width="710" fill="none" />
  <polygon points="8000,8010 10780,15300 13000,14000 14000,13000 15000,11500 15900,8000 14500,3500 13500,2905" style="fill:#854ee1" />
 </g>
 
<g id="yellow-parts" fill="#e3cc5c" stroke="none">
 <path d="M7565 3405 c160 -20 308 -38 330 -41 161 -24 420 -37 780 -42 417 -5 530 0 693 32 268 54 703 187 897 275 441 200 631 327 937 632 164 164 314 341 359 425 13 25 12 27 -26 57 -34 27 -252 227 -415 381 -30 28 -161 150 -290 270 -267 247 -334 310 -440 410 -42 38 -107 99 -145 135 -39 35 -106 98 -150 140 -44 41 -107 100 -140 130 -100 92 -336 311 -410 381 -38 36 -169 157 -290 269 -203 188 -275 255 -440 410 -33 31 -98 92 -145 135 -47 43 -106 98 -132 123 -27 24 -45 48 -42 54 4 6 40 8 98 4 50 -4 173 -7 274 -8 l183 -1 41 39 c22 21 101 107 175 189 261 290 390 412 546 518 133 89 151 99 282 141 183 59 481 106 671 106 155 0 344 -17 399 -35 116 -40 238 -87 305 -118 78 -35 266 -157 310 -199 42 -41 110 -116 110 -121 0 -3 19 -45 41 -93 43 -93 98 -260 180 -554 27 -96 54 -193 61 -215 17 -60 19 -97 24 -534 4 -341 2 -406 -10 -413 -13 -7 -33 -174 -27 -221 1 -10 -3 -24 -9 -32 -6 -7 -10 -30 -9 -51 1 -52 -11 -124 -22 -124 -5 0 -9 -13 -9 -30 0 -16 -3 -30 -7 -30 -5 0 -19 -35 -32 -78 -13 -42 -29 -90 -36 -107 -7 -16 -27 -75 -45 -130 -36 -108 -151 -348 -247 -516 -34 -57 -70 -120 -80 -139 -11 -19 -34 -58 -51 -87 l-31 -52 95 -88 c53 -48 101 -89 108 -91 28 -6 277 412 399 671 31 64 74 175 96 245 22 70 51 165 66 211 39 127 101 441 139 704 32 215 19 608 -29 932 -61 414 -84 493 -248 857 -130 288 -167 410 -182 604 -11 140 -84 403 -144 523 -61 121 -101 255 -141 481 -6 30 -19 100 -29 155 -11 56 -29 168 -41 250 -11 82 -24 152 -28 156 -4 3 -68 30 -142 59 -180 71 -388 175 -600 302 -96 57 -206 122 -245 143 -338 187 -486 276 -650 388 -181 125 -573 441 -616 451"/>
 <polygon points="8000,8010 9415,11650 8500,7560"/>
 </g>
<g id="black-small-circle">
	<circle cx="8000" cy="5000" r="1500" fill="#000" stroke="none" />
</g>
<g id="white-shapes" fill="#fff" stroke="none">
 <path id="white-around-head" d="M7720 15259 c-41 -4 -129 -10 -195 -13 -199 -9 -495 -42 -675 -75 -30 -6 -82 -15 -115 -21 -33 -5 -80 -14 -105 -19 -25 -5 -70 -14 -100 -20 -62 -12 -136 -29 -192 -42 -21 -5 -55 -13 -75 -18 -21 -5 -74 -18 -119 -30 -45 -12 -90 -23 -100 -25 -10 -3 -30 -9 -44 -14 -14 -5 -27 -10 -30 -10 -9 -1 -34 -9 -225 -71 -167 -54 -247 -82 -320 -111 -147 -58 -270 -108 -315 -128 -30 -13 -71 -31 -90 -39 -61 -27 -473 -232 -520 -259 -25 -14 -85 -49 -135 -77 -121 -69 -370 -225 -478 -301 -208 -144 -509 -377 -637 -492 -246 -219 -485 -454 -633 -619 -44 -49 -94 -106 -112 -125 -170 -190 -472 -596 -635 -857 -179 -285 -396 -686 -484 -893 -11 -25 -29 -67 -41 -95 -53 -119 -68 -154 -92 -215 -38 -99 -83 -220 -99 -270 -8 -25 -19 -54 -24 -65 -5 -11 -19 -51 -31 -90 -11 -38 -28 -90 -36 -115 -9 -25 -19 -58 -23 -75 -5 -16 -18 -61 -30 -100 -12 -38 -23 -81 -26 -95 -3 -14 -15 -65 -28 -115 -13 -49 -29 -117 -36 -150 -7 -33 -16 -73 -20 -90 -7 -28 -16 -69 -39 -190 -5 -27 -15 -81 -21 -120 -6 -38 -15 -81 -19 -95 -4 -14 -8 -49 -10 -79 -1 -30 -5 -60 -9 -65 -4 -6 -10 -45 -14 -86 -24 -235 -29 -291 -40 -460 -21 -336 -12 -799 22 -1145 5 -55 13 -134 18 -175 4 -41 10 -80 14 -86 4 -5 8 -35 9 -65 2 -30 6 -65 10 -79 4 -14 13 -56 19 -95 17 -106 46 -254 60 -310 4 -16 13 -57 20 -90 7 -33 23 -100 36 -150 13 -49 25 -101 28 -115 4 -22 25 -95 81 -280 22 -75 54 -171 65 -195 5 -11 16 -40 24 -65 46 -138 137 -368 216 -545 48 -106 229 -473 262 -530 20 -33 47 -80 60 -105 141 -255 384 -617 607 -900 340 -432 790 -880 1221 -1217 179 -139 496 -363 610 -429 19 -12 84 -51 143 -87 60 -37 110 -67 112 -67 2 0 43 -23 92 -51 81 -47 439 -226 558 -279 168 -75 430 -179 545 -216 25 -8 54 -19 65 -24 11 -5 52 -19 90 -31 39 -11 95 -29 125 -39 71 -24 228 -70 260 -76 14 -3 66 -15 115 -28 50 -13 115 -28 145 -35 30 -7 75 -17 100 -22 87 -20 126 -28 190 -39 69 -12 146 -26 195 -35 17 -3 53 -8 80 -11 28 -2 66 -9 85 -14 19 -5 67 -12 105 -15 39 -3 111 -10 160 -15 323 -34 802 -43 1135 -22 239 16 514 43 555 55 11 4 43 9 70 11 28 3 64 8 80 11 49 9 126 23 195 35 64 11 103 19 190 39 25 5 70 15 100 22 30 7 96 22 145 35 50 13 101 25 115 28 32 6 189 52 260 76 30 10 87 28 125 39 39 12 79 26 90 31 11 5 40 16 65 24 116 37 380 142 545 216 126 56 479 233 558 279 49 28 90 51 92 51 2 0 52 30 112 67 59 36 131 79 158 96 172 102 562 386 770 561 259 219 669 615 663 641 -3 14 -1516 1425 -1528 1425 -3 0 -58 -66 -120 -147 -144 -188 -314 -362 -505 -518 -186 -152 -329 -240 -510 -317 -267 -113 -900 -312 -1120 -353 -49 -9 -108 -20 -130 -25 -22 -5 -87 -14 -145 -20 -58 -6 -134 -15 -170 -19 -36 -4 -254 -4 -485 0 -438 7 -432 7 -935 73 -146 20 -326 42 -400 51 -158 18 -333 50 -590 107 -102 22 -203 44 -225 49 -22 4 -83 20 -135 34 -52 14 -131 35 -175 46 -161 42 -393 171 -707 391 -150 105 -468 400 -549 509 -57 77 -178 336 -235 504 -43 124 -78 268 -99 405 -16 103 -65 286 -124 468 -120 365 -161 645 -116 772 9 25 23 76 31 114 27 129 -11 263 -118 409 -37 51 -98 135 -134 187 -37 52 -88 120 -114 150 -56 66 -139 188 -244 364 -78 130 -122 197 -220 337 -110 157 -131 297 -67 436 41 86 79 126 163 169 84 42 126 53 257 63 101 9 104 10 139 45 34 33 37 41 40 105 4 59 -2 89 -37 206 -23 75 -41 149 -41 164 0 41 36 155 64 203 l26 44 -39 89 c-45 105 -56 175 -35 225 19 43 40 67 131 142 40 32 85 79 99 104 25 43 27 51 21 137 -3 51 -15 146 -27 212 -26 153 -25 239 1 332 45 163 128 295 228 362 104 71 282 140 437 170 141 28 328 77 529 140 88 27 248 73 355 101 244 64 603 185 779 262 111 48 158 76 266 157 73 55 168 134 211 178 162 161 457 603 561 842 30 69 57 129 60 134 2 4 104 -92 226 -214 169 -168 294 -280 522 -468 459 -377 487 -400 680 -528 99 -66 211 -143 250 -172 59 -44 71 -50 80 -37 12 15 30 61 109 271 24 66 66 176 91 245 26 69 68 179 92 245 25 66 49 129 53 140 5 11 28 74 53 140 25 66 71 188 102 270 31 83 77 204 101 270 25 66 51 136 59 155 22 57 105 279 135 360 16 41 58 154 95 250 144 376 165 430 220 575 31 83 61 160 67 172 6 13 8 26 5 30 -9 9 -77 33 -312 110 -191 62 -213 70 -225 71 -3 0 -18 6 -35 12 -16 7 -39 13 -49 16 -10 2 -53 12 -95 24 -42 11 -85 22 -96 24 -11 3 -60 14 -110 26 -109 25 -151 35 -230 50 -33 6 -78 15 -100 20 -22 5 -74 14 -115 20 -41 6 -91 15 -110 20 -19 5 -60 12 -90 15 -30 4 -89 11 -130 16 -141 17 -285 30 -395 34 -60 3 -157 10 -214 15 -120 11 -441 11 -551 -1z"/>
 <path id="brain-white" d="M8315 7570 c-234 -17 -425 -89 -615 -232 -128 -95 -256 -294 -325 -503 -15 -44 -28 -81 -29 -82 -1 -1 -85 5 -186 13 -369 30 -494 33 -775 19 -288 -15 -350 -22 -543 -60 -210 -42 -417 -111 -537 -179 -266 -151 -461 -405 -515 -671 -28 -140 -38 -396 -20 -528 12 -94 67 -269 134 -430 169 -408 418 -705 786 -937 211 -133 488 -275 635 -325 237 -81 825 -199 1240 -249 160 -20 308 -38 330 -41 161 -24 420 -37 780 -42 417 -5 530 0 693 32 268 54 703 187 897 275 439 199 629 326 931 627 165 163 257 269 343 396 l33 49 -78 71 c-43 40 -149 137 -234 217 -86 80 -245 229 -355 331 -110 102 -337 313 -505 470 -167 156 -401 374 -520 484 -119 110 -472 439 -785 730 -314 292 -583 540 -599 553 -16 12 -40 21 -55 21 -14 -1 -71 -5 -126 -9z m-139 -1239 c222 -49 423 -155 590 -314 211 -199 339 -453 380 -752 50 -362 -86 -755 -355 -1024 -376 -375 -942 -471 -1419 -241 -138 66 -236 136 -341 241 -167 167 -281 371 -337 604 -22 93 -30 348 -14 456 56 386 298 725 652 917 85 46 232 98 328 115 47 9 96 18 110 21 60 11 318 -3 406 -23z"/>
 <path id="gc-white" d="M7709 6105 c-262 -53 -499 -206 -651 -420 -81 -115 -124 -206 -164 -355 -27 -99 -25 -367 4 -472 52 -190 147 -353 279 -479 138 -132 281 -213 468 -265 91 -26 115 -28 265 -28 137 0 179 3 247 22 318 83 557 272 694 547 50 100 99 265 99 331 l0 34 -345 0 -345 0 0 165 0 165 90 0 90 0 0 -80 0 -80 256 0 256 0 -7 63 c-9 81 -48 204 -92 292 -148 294 -408 491 -741 560 -90 18 -309 18 -403 0z m397 -301 c102 -29 207 -87 278 -153 l48 -46 -63 -57 c-35 -32 -67 -58 -72 -58 -5 0 -27 15 -50 34 -101 82 -214 120 -352 119 -163 -1 -285 -53 -397 -171 -92 -96 -138 -210 -138 -340 0 -143 54 -266 161 -366 182 -172 448 -201 663 -71 32 19 62 35 66 35 9 0 120 -108 120 -117 0 -21 -154 -108 -245 -138 -269 -88 -581 1 -762 216 -109 130 -163 278 -163 449 0 317 213 589 524 670 110 29 270 27 382 -6z"/>
 </g>

</svg>